<svg width="60" height="60" fill="none" xmlns="http://www.w3.org/2000/svg"><circle cx="30" cy="30" r="30" fill="#00B754"/><path d="M37.603 41.727c0 .338-.134.662-.371.9-.238.239-.56.373-.896.373H13.531c-.336 0-.658-.134-.896-.373a1.276 1.276 0 0 1 0-1.8c.238-.238.56-.372.896-.372h22.805a1.267 1.267 0 0 1 1.266 1.272Zm11.135-20.56-2.952-3.801-.02-.024a6.282 6.282 0 0 0-8.121-1.45l-8.166 4.896-8.543-3.156a1.262 1.262 0 0 0-.885 0l-1.135.434-.051.02a2.535 2.535 0 0 0-1.498 1.91 2.557 2.557 0 0 0 .78 2.302l3.46 3.37-3.194 1.942-4.475-1.518a1.262 1.262 0 0 0-.963.064l-.475.234a2.535 2.535 0 0 0-1.464 1.894 2.556 2.556 0 0 0 .753 2.275l5.701 5.611.02.02a6.284 6.284 0 0 0 4.32 1.729 6.341 6.341 0 0 0 3.208-.878l23.345-14a1.27 1.27 0 0 0 .581-1.393 1.276 1.276 0 0 0-.231-.481h.005Z" fill="#101828"/></svg>