<svg width="60" height="60" fill="none" xmlns="http://www.w3.org/2000/svg"><circle cx="30" cy="30" r="30" fill="#00B754"/><path d="M50 26.5v10a1.25 1.25 0 0 1-2.5 0v-3.75H45v2.5a2.5 2.5 0 0 1-2.5 2.5h-1.983L35 43.267a2.479 2.479 0 0 1-1.767.733H23.017a2.48 2.48 0 0 1-1.767-.733l-5.517-5.517A2.48 2.48 0 0 1 15 35.983V32.75h-2.5v3.75a1.25 1.25 0 0 1-2.5 0v-10a1.25 1.25 0 0 1 2.5 0v3.75H15V21.5a2.5 2.5 0 0 1 2.5-2.5h10v-2.5h-3.75a1.25 1.25 0 0 1 0-2.5h10a1.25 1.25 0 0 1 0 2.5H30V19h3.233a2.48 2.48 0 0 1 1.767.733l5.517 5.517H42.5a2.5 2.5 0 0 1 2.5 2.5v2.5h2.5V26.5a1.25 1.25 0 0 1 2.5 0Z" fill="#101828"/></svg>