<svg width="60" height="60" fill="none" xmlns="http://www.w3.org/2000/svg"><circle cx="30" cy="30" r="30" fill="#00B754"/><path d="M47.507 18.093a6.43 6.43 0 0 0-2.024-4.61c-2.515-2.387-6.598-2.297-9.096.202l-4.19 4.21a4.312 4.312 0 0 0-5.955.139l-.898.898a2.874 2.874 0 0 0 0 4.068l.36.37-9.165 9.164a7.142 7.142 0 0 0-1.892 6.828l-1.438 3.309a2.453 2.453 0 0 0 .516 2.733 2.857 2.857 0 0 0 3.182.603l3.15-1.374a7.17 7.17 0 0 0 6.658-1.932l9.164-9.164.37.37a2.875 2.875 0 0 0 4.065 0l.898-.898a4.312 4.312 0 0 0 .133-5.962l4.268-4.29a6.423 6.423 0 0 0 1.894-4.664Zm-15.454 15.22H19.847l7.906-7.907 6.099 6.11-1.799 1.797Z" fill="#101828"/></svg>