<svg width="60" height="60" fill="none" xmlns="http://www.w3.org/2000/svg"><circle cx="30" cy="30" r="30" fill="#00B754"/><path d="m45.1 26.895-2.194-.732v-8.444a2.688 2.688 0 0 0-2.687-2.688h-9.407v-2.687a1.344 1.344 0 0 0-2.687 0v2.687h-9.406a2.688 2.688 0 0 0-2.688 2.688v8.444l-2.193.732A2.688 2.688 0 0 0 12 29.446v5.758c0 .125.017.249.052.368 2.64 9.253 14.465 12.44 16.809 12.984.4.092.816.092 1.216 0 2.343-.544 14.168-3.73 16.808-12.984a1.31 1.31 0 0 0 .053-.368v-5.758a2.688 2.688 0 0 0-1.838-2.551ZM30.812 36.53a1.344 1.344 0 0 1-2.687 0v-9.406a1.344 1.344 0 0 1 2.688 0v9.406Zm9.407-11.265-10.325-3.447a1.343 1.343 0 0 0-.85 0l-10.325 3.447v-7.547h21.5v7.547Z" fill="#101828"/></svg>