<svg width="26" height="26" fill="none" xmlns="http://www.w3.org/2000/svg"><path d="m16.073 15.148 2.875 1.435A3 3 0 0 1 16 18.995a9.01 9.01 0 0 1-9-9 3 3 0 0 1 2.411-2.943l1.435 2.875-1.221 1.818a1 1 0 0 0-.091.938 7.059 7.059 0 0 0 3.768 3.77 1 1 0 0 0 .948-.083l1.823-1.222ZM26 12.995A13 13 0 0 1 6.89 24.472l-4.256 1.419a2 2 0 0 1-2.53-2.53l1.418-4.256A13 13 0 1 1 26 12.995Zm-5 3a1 1 0 0 0-.552-.895l-4-2a1 1 0 0 0-1 .062l-1.837 1.225a5.07 5.07 0 0 1-2-2l1.225-1.836a1 1 0 0 0 .063-1l-2-4A1 1 0 0 0 10 4.995a5 5 0 0 0-5 5 11.013 11.013 0 0 0 11 11 5.001 5.001 0 0 0 5-5Z" fill="#000"/></svg>