<svg width="74" height="74" fill="none" xmlns="http://www.w3.org/2000/svg"><rect width="74" height="74" rx="14" fill="#00B754"/><path d="m48.96 29.266-11-6.018a1.985 1.985 0 0 0-1.92 0l-11 6.02a2 2 0 0 0-1.04 1.75v11.956a2 2 0 0 0 1.04 1.75l11 6.021a1.985 1.985 0 0 0 1.92 0l11-6.021a2 2 0 0 0 1.04-1.75V31.02a2 2 0 0 0-1.04-1.754ZM37 24.998l10.044 5.5-3.723 2.036-10.043-5.5L37 24.998Zm0 11-10.044-5.5 4.239-2.322 10.044 5.5L37 35.998Zm11 6.98-10 5.475V37.726l4-2.188v4.46a1 1 0 0 0 2 0v-5.555l4-2.19V42.98Z" fill="#000"/></svg>