<svg width="74" height="74" fill="none" xmlns="http://www.w3.org/2000/svg"><rect width="74" height="74" rx="14" fill="#00B754"/><path d="M50 37v.19c-.042 1.782-.704 3.81-3.5 3.81-2.892 0-3.5-2.175-3.5-4v-5a1 1 0 0 0-1.066-1A1.021 1.021 0 0 0 41 32.034v.5a6.001 6.001 0 1 0 .841 8.006c.125.219.267.428.423.625C42.935 42 44.214 43 46.5 43c.386.001.772-.03 1.153-.094a.5.5 0 0 1 .51.75A13.006 13.006 0 0 1 36.74 50c-6.848-.138-12.464-5.642-12.729-12.486a12.998 12.998 0 0 1 12.733-13.508A13 13 0 0 1 50 37Zm-17 0a4 4 0 1 0 8 0 4 4 0 0 0-8 0Z" fill="#000"/></svg>