<svg width="74" height="74" fill="none" xmlns="http://www.w3.org/2000/svg"><rect width="74" height="74" rx="14" fill="#00B754"/><path d="m35.708 43.708-7 7a1.001 1.001 0 0 1-1.415 0l-3-3a.998.998 0 0 1 0-1.416 1 1 0 0 1 1.415 0l2.293 2.294 6.292-6.294a1 1 0 1 1 1.415 1.416ZM46.001 27H26a2 2 0 0 0-2 2v13.529a.499.499 0 0 0 .55.5 4.002 4.002 0 0 1 3.278 1.145.239.239 0 0 0 .264.053.239.239 0 0 0 .079-.053l4-4a4 4 0 0 1 5.657 5.657l-4.318 4.318a.5.5 0 0 0 .353.853H46a2 2 0 0 0 2-2V29a2 2 0 0 0-2-2Z" fill="#101828"/></svg>