<svg width="74" height="74" fill="none" xmlns="http://www.w3.org/2000/svg"><rect width="74" height="74" rx="14" fill="#00B754"/><path d="M49.63 39.992v-.013a6.07 6.07 0 0 0-.297-.69l-5.197-11.81a1 1 0 0 0-.209-.305 4 4 0 0 0-5.657 0 1 1 0 0 0-.293.705v3.125h-4V27.88a1 1 0 0 0-.292-.707 4 4 0 0 0-5.658 0 1.001 1.001 0 0 0-.208.305L22.628 39.29a6.052 6.052 0 0 0-.298.69v.013a6 6 0 0 0 11.29 4.064 5.936 5.936 0 0 0 .363-2.074v-8.978h4v8.98a5.939 5.939 0 0 0 .362 2.073 6 6 0 0 0 11.29-4.064l-.005-.001Zm-17.894 3.375a4 4 0 0 1-7.525-2.714l.227-.516a4 4 0 0 1 7.54 1.852v.015a4 4 0 0 1-.242 1.368v-.005Zm13.616 2.396a3.999 3.999 0 0 1-5.374-3.759v-.013a4 4 0 0 1 7.54-1.848l.226.516a4 4 0 0 1-2.392 5.104Z" fill="#101828"/></svg>