<svg width="19" height="19" fill="none" xmlns="http://www.w3.org/2000/svg"><g clip-path="url(#a)" fill="#000"><path d="M5.938 17.07a1.04 1.04 0 1 0 0-2.078 1.04 1.04 0 0 0 0 2.078Zm7.718 0a1.04 1.04 0 1 0 0-2.078 1.04 1.04 0 0 0 0 2.078Z"/><path fill-rule="evenodd" clip-rule="evenodd" d="M.148 2.375c0-.246.2-.445.446-.445h1.248a1.04 1.04 0 0 1 .999.753l.633 2.215h13.151a.445.445 0 0 1 .426.577l-2.117 6.88a1.633 1.633 0 0 1-1.561 1.153H6.24a1.633 1.633 0 0 1-1.57-1.184L1.984 2.928a.149.149 0 0 0-.143-.108H.594a.445.445 0 0 1-.446-.445Zm3.58 3.414 1.797 6.29a.742.742 0 0 0 .714.538h7.134a.743.743 0 0 0 .71-.524l1.94-6.304H3.727Z"/></g><defs><clipPath id="a"><path fill="#fff" d="M0 0h19v19H0z"/></clipPath></defs></svg>