<svg width="66" height="66" fill="none" xmlns="http://www.w3.org/2000/svg"><circle cx="32.935" cy="32.734" r="32.5" fill="#00B754"/><g clip-path="url(#a)"><path d="M45.64 21.229a.787.787 0 0 0-1.483.519c1.208 3.47-1.19 6.063-3.017 7.451l-.739-1.058c-.248-.355-.803-.65-1.235-.655l-4.144.018a2.81 2.81 0 0 0-1.426.44l-12.212 8.563a1.313 1.313 0 0 0-.322 1.825l5.55 7.94c.416.592 1.08.52 1.673.107l12.213-8.565c.35-.248.756-.784.9-1.193l1.296-4.089c.143-.408.056-1.03-.192-1.385l-.45-.645c2.455-1.881 5.003-5.205 3.588-9.273Zm-5.682 12.165a2.09 2.09 0 0 1-3.26-2.08 2.089 2.089 0 0 1 3.29-1.332 8.017 8.017 0 0 1-.642.357.788.788 0 0 0 .336 1.5.788.788 0 0 0 .334-.077c.253-.12.523-.262.805-.43a2.1 2.1 0 0 1-.863 2.062Z" fill="#fff"/></g><defs><clipPath id="a"><path fill="#fff" transform="translate(20.436 20.702)" d="M0 0h26v26H0z"/></clipPath></defs></svg>