<svg width="66" height="66" fill="none" xmlns="http://www.w3.org/2000/svg"><circle cx="32.607" cy="32.734" r="32.5" fill="#00B754"/><path d="M33.02 20.627c-6.806 0-12.342 5.536-12.342 12.341v5.114c0 1.263 1.107 2.291 2.468 2.291h1.234a1.234 1.234 0 0 0 1.234-1.234v-6.347a1.234 1.234 0 0 0-1.234-1.234h-1.12c.686-4.777 4.796-8.463 9.76-8.463 4.963 0 9.073 3.686 9.76 8.463h-1.121a1.234 1.234 0 0 0-1.234 1.234v7.581a2.47 2.47 0 0 1-2.469 2.469h-2.468v-1.234H30.55v3.702h7.405a4.942 4.942 0 0 0 4.937-4.937c1.361 0 2.468-1.028 2.468-2.291v-5.114c0-6.805-5.536-12.341-12.341-12.341Z" fill="#fff"/></svg>