<svg width="66" height="66" fill="none" xmlns="http://www.w3.org/2000/svg"><circle cx="32.772" cy="32.734" r="32.5" fill="#00B754"/><g clip-path="url(#a)"><path d="m36.092 44.882-2.82 2.82-2.82-2.82c-5.543-1.28-9.68-6.25-9.68-12.18 0-6.9 5.6-12.5 12.5-12.5s12.5 5.6 12.5 12.5c0 5.93-4.138 10.9-9.68 12.18ZM25.8 36.972c1.835 2.738 4.59 4.48 7.671 4.48 3.08 0 5.837-1.74 7.67-4.48a11.21 11.21 0 0 0-7.67-3.02 11.21 11.21 0 0 0-7.67 3.02Zm7.472-5.52a3.75 3.75 0 1 0 0-7.5 3.75 3.75 0 0 0 0 7.5Z" fill="#fff"/></g><defs><clipPath id="a"><path fill="#fff" transform="translate(18.271 17.702)" d="M0 0h30v30H0z"/></clipPath></defs></svg>