<svg width="326" height="483" fill="none" xmlns="http://www.w3.org/2000/svg"><path fill-rule="evenodd" clip-rule="evenodd" d="M37 216c-20.434 0-37 16.717-37 37.339A37.39 37.39 0 0 0 17.378 285a37.645 37.645 0 0 1-1.633-11.006c0-20.622 16.565-37.339 37-37.339H74V216H37ZM166 0c-20.435 0-37 16.717-37 37.339A37.392 37.392 0 0 0 146.378 69a37.644 37.644 0 0 1-1.633-11.006c0-20.622 16.565-37.339 37-37.339H203V0h-37Zm-12.86 456.088c14.511-14.511 14.53-38.019.042-52.507-9.377-9.377-22.534-12.677-34.584-9.902a37.01 37.01 0 0 1 8.892 6.572c14.488 14.487 14.469 37.995-.042 52.506l-15.094 15.094 14.511 14.511 26.275-26.274Zm129-216c14.511-14.511 14.53-38.019.042-52.507-9.377-9.377-22.534-12.677-34.584-9.902a37.01 37.01 0 0 1 8.892 6.572c14.488 14.487 14.469 37.995-.042 52.506l-15.094 15.094 14.511 14.511 26.275-26.274ZM32.036 379.509c14.511 14.511 38.019 14.53 52.507.043 9.377-9.378 12.677-22.535 9.902-34.585a37.035 37.035 0 0 1-6.572 8.893c-14.487 14.487-37.995 14.468-52.506-.043l-15.094-15.094L5.76 353.234l26.275 26.275Zm129-216c14.511 14.511 38.019 14.53 52.506.043 9.378-9.378 12.678-22.535 9.903-34.585a37.042 37.042 0 0 1-6.572 8.893c-14.487 14.487-37.995 14.468-52.506-.043l-15.094-15.094-14.512 14.511 26.275 26.275Zm-43.739 102.385c-14.511 14.511-14.53 38.019-.043 52.507 9.378 9.377 22.535 12.677 34.585 9.903a37.047 37.047 0 0 1-8.893-6.573c-14.487-14.487-14.468-37.995.043-52.506l15.094-15.094-14.511-14.511-26.275 26.274Zm129-216c-14.511 14.511-14.53 38.02-.043 52.507 9.378 9.377 22.535 12.677 34.585 9.903a37.047 37.047 0 0 1-8.893-6.573c-14.487-14.487-14.468-37.995.043-52.506l15.094-15.094-14.511-14.511-26.275 26.274Z" fill="#00B754"/><path fill-rule="evenodd" clip-rule="evenodd" d="M74 237v16.368C74 273.599 57.507 290 37.162 290a36.81 36.81 0 0 1-19.535-5.57A36.431 36.431 0 0 1 16 273.632C16 253.401 32.493 237 52.838 237H74ZM203 21v16.368C203 57.599 186.507 74 166.162 74a36.818 36.818 0 0 1-19.536-5.57A36.446 36.446 0 0 1 145 57.632C145 37.401 161.493 21 181.838 21H203Zm-90.8 446.698-11.7-11.7c-14.461-14.461-14.37-38 .205-52.575 5.141-5.141 11.397-8.48 17.977-10.014a36.778 36.778 0 0 1 8.883 6.553c14.462 14.462 14.37 38-.205 52.575l-15.16 15.161Zm129-216-11.7-11.7c-14.461-14.461-14.369-38 .205-52.575 5.141-5.141 11.397-8.48 17.977-10.014a36.778 36.778 0 0 1 8.883 6.553c14.462 14.462 14.37 38-.205 52.575l-15.16 15.161ZM20.426 338.569l11.7-11.699c14.461-14.461 38-14.369 52.575.205a37.362 37.362 0 0 1 10.013 17.977 36.752 36.752 0 0 1-6.553 8.883c-14.461 14.462-38 14.37-52.575-.205l-15.16-15.161Zm129-216 11.7-11.699c14.461-14.462 38-14.37 52.574.205 5.141 5.141 8.48 11.397 10.014 17.977a36.725 36.725 0 0 1-6.553 8.883c-14.461 14.462-38 14.37-52.575-.205l-15.16-15.161Zm8.81 131.716 11.7 11.699c14.461 14.462 14.369 38-.206 52.575-5.141 5.141-11.397 8.48-17.976 10.014a36.756 36.756 0 0 1-8.884-6.553c-14.461-14.462-14.369-38 .206-52.575l15.16-15.16Zm129-216 11.7 11.7c14.461 14.46 14.369 38-.206 52.574-5.141 5.141-11.397 8.48-17.976 10.014a36.756 36.756 0 0 1-8.884-6.553c-14.461-14.462-14.369-38 .206-52.575l15.16-15.16Z" fill="#101828"/></svg>