<svg width="54" height="51" fill="none" xmlns="http://www.w3.org/2000/svg"><path fill-rule="evenodd" clip-rule="evenodd" d="M39.945 37.746c7.32-7.32 7.32-19.188 0-26.508C35.208 6.5 28.565 4.83 22.482 6.225a18.74 18.74 0 0 1 4.492 3.32c7.32 7.32 7.32 19.189 0 26.509l-7.615 7.614L26.692 51l13.253-13.254Z" fill="#00B754"/><path fill-rule="evenodd" clip-rule="evenodd" d="m19.36 43.668-5.922-5.922c-7.32-7.32-7.32-19.188 0-26.508a18.656 18.656 0 0 1 9.044-5.013 18.739 18.739 0 0 1 4.492 3.321c7.32 7.32 7.32 19.188 0 26.508l-7.614 7.614Z" fill="#101828"/></svg>