<svg width="40" height="40" fill="none" xmlns="http://www.w3.org/2000/svg"><rect width="40" height="40" rx="7.471" fill="#00B754"/><path d="m26.319 16.344-5.87-3.212a1.06 1.06 0 0 0-1.024 0l-5.87 3.213a1.067 1.067 0 0 0-.555.934v6.38a1.067 1.067 0 0 0 .555.933l5.87 3.213a1.059 1.059 0 0 0 1.024 0l5.87-3.213a1.068 1.068 0 0 0 .555-.934V17.28a1.067 1.067 0 0 0-.555-.936Zm-6.382-2.278L25.297 17l-1.987 1.086-5.36-2.934 1.987-1.087Zm0 5.87L14.577 17l2.262-1.239 5.36 2.935-2.262 1.239Zm5.87 3.725-5.336 2.92v-5.723l2.134-1.168v2.38a.534.534 0 0 0 1.067 0v-2.964l2.135-1.168v5.723Z" fill="#000"/></svg>