<svg width="202" height="70" fill="none" xmlns="http://www.w3.org/2000/svg"><path fill-rule="evenodd" clip-rule="evenodd" d="M33 0C14.775 0 0 14.779 0 33.01 0 44.81 6.19 55.163 15.5 61a33.01 33.01 0 0 1-1.457-9.73c0-18.23 14.774-33.01 33-33.01H66V0H33Z" fill="#00B754"/><path fill-rule="evenodd" clip-rule="evenodd" d="M66 18v14.824C66 51.145 51.213 66 32.973 66a32.764 32.764 0 0 1-17.515-5.044A33.31 33.31 0 0 1 14 51.176C14 32.855 28.787 18 47.027 18H66Z" fill="#101828"/><path d="M72.36 63V40.094h15.703v3.875h-11.08v5.422h9.563v3.875h-9.563V63H72.36Zm18.593-11.313c0-2.333.35-4.291 1.047-5.874a10.858 10.858 0 0 1 2.125-3.141c.906-.927 1.896-1.615 2.969-2.063 1.427-.604 3.073-.906 4.937-.906 3.375 0 6.073 1.047 8.094 3.14 2.031 2.094 3.047 5.006 3.047 8.735 0 3.698-1.005 6.594-3.016 8.688-2.01 2.083-4.698 3.125-8.062 3.125-3.406 0-6.115-1.037-8.125-3.11-2.01-2.083-3.016-4.948-3.016-8.593Zm4.766-.156c0 2.594.599 4.563 1.797 5.907 1.197 1.333 2.718 2 4.562 2 1.844 0 3.354-.662 4.531-1.985 1.188-1.333 1.782-3.328 1.782-5.984 0-2.625-.579-4.584-1.735-5.875-1.146-1.292-2.672-1.938-4.578-1.938-1.906 0-3.443.657-4.61 1.969-1.166 1.302-1.75 3.27-1.75 5.906ZM116.812 63V40.094h9.735c2.448 0 4.224.208 5.328.625 1.115.406 2.005 1.135 2.672 2.187.667 1.052 1 2.255 1 3.61 0 1.718-.505 3.14-1.516 4.265-1.01 1.115-2.521 1.818-4.531 2.11 1 .583 1.823 1.224 2.469 1.922.656.697 1.536 1.937 2.64 3.718L137.406 63h-5.531l-3.344-4.984c-1.187-1.782-2-2.901-2.437-3.36-.438-.468-.901-.786-1.391-.953-.489-.177-1.265-.266-2.328-.266h-.937V63h-4.626Zm4.626-13.219h3.421c2.219 0 3.605-.093 4.157-.281.552-.188.984-.51 1.296-.969.313-.458.469-1.031.469-1.718 0-.771-.208-1.391-.625-1.86-.406-.479-.984-.781-1.734-.906-.375-.052-1.5-.078-3.375-.078h-3.609v5.812Zm33.14 4.797L159.062 56c-.687 2.5-1.833 4.36-3.437 5.578-1.594 1.208-3.62 1.813-6.078 1.813-3.042 0-5.542-1.037-7.5-3.11-1.958-2.083-2.938-4.927-2.938-8.531 0-3.813.985-6.77 2.953-8.875 1.969-2.115 4.558-3.172 7.766-3.172 2.802 0 5.078.828 6.828 2.484 1.042.98 1.823 2.386 2.344 4.22l-4.578 1.093c-.271-1.188-.839-2.125-1.703-2.813-.854-.687-1.896-1.03-3.125-1.03-1.698 0-3.078.609-4.141 1.827-1.052 1.22-1.578 3.193-1.578 5.922 0 2.896.521 4.959 1.563 6.188 1.041 1.229 2.395 1.843 4.062 1.843 1.229 0 2.286-.39 3.172-1.171.885-.782 1.521-2.01 1.906-3.688ZM163.047 63V40.094h16.984v3.875h-12.359v5.078h11.5v3.86h-11.5v6.234h12.797V63h-17.422Zm21.469 0V40.281h4.625v18.86h11.5V63h-16.125Z" fill="#fff"/></svg>