<svg width="223" height="55" fill="none" xmlns="http://www.w3.org/2000/svg"><path fill-rule="evenodd" clip-rule="evenodd" d="M23.5 8C10.521 8 0 18.521 0 31.5c0 8.4 4.408 15.772 11.038 19.927A23.495 23.495 0 0 1 10 44.5C10 31.521 20.521 21 33.5 21H47V8H23.5Z" fill="#00B754"/><path fill-rule="evenodd" clip-rule="evenodd" d="M47 21v10.5C47 44.479 36.479 55 23.5 55a23.39 23.39 0 0 1-12.462-3.573A23.495 23.495 0 0 1 10 44.5C10 31.521 20.521 21 33.5 21H47Z" fill="#fff"/><path d="M60.95 37V8.367h19.628v4.844H66.731v6.777h11.953v4.844H66.73V37h-5.782Zm23.24-14.14c0-2.917.437-5.365 1.309-7.344a13.574 13.574 0 0 1 2.656-3.926c1.133-1.159 2.37-2.018 3.711-2.578 1.784-.755 3.841-1.133 6.172-1.133 4.219 0 7.591 1.309 10.117 3.926 2.539 2.617 3.809 6.256 3.809 10.918 0 4.622-1.257 8.242-3.77 10.859-2.513 2.604-5.872 3.906-10.078 3.906-4.258 0-7.643-1.295-10.156-3.886-2.513-2.605-3.77-6.185-3.77-10.743Zm5.957-.196c0 3.242.75 5.703 2.246 7.383 1.498 1.666 3.399 2.5 5.704 2.5 2.304 0 4.192-.827 5.664-2.48 1.484-1.667 2.226-4.16 2.226-7.481 0-3.281-.722-5.73-2.168-7.344-1.432-1.614-3.34-2.422-5.722-2.422-2.383 0-4.304.82-5.762 2.461-1.458 1.628-2.188 4.089-2.188 7.383ZM116.516 37V8.367h12.168c3.059 0 5.28.26 6.66.781 1.393.508 2.506 1.42 3.34 2.735.833 1.315 1.25 2.819 1.25 4.512 0 2.148-.632 3.925-1.895 5.332-1.263 1.393-3.151 2.272-5.664 2.636 1.25.73 2.279 1.53 3.086 2.403.82.872 1.921 2.422 3.301 4.648L142.258 37h-6.914l-4.18-6.23c-1.484-2.227-2.5-3.627-3.047-4.2-.547-.586-1.126-.983-1.738-1.191-.612-.221-1.582-.332-2.91-.332h-1.172V37h-5.781Zm5.781-16.523h4.277c2.774 0 4.505-.118 5.196-.352a3.117 3.117 0 0 0 1.621-1.21c.39-.574.586-1.29.586-2.15 0-.963-.261-1.738-.782-2.324-.507-.599-1.23-.976-2.168-1.132-.468-.066-1.875-.098-4.218-.098h-4.512v7.266Zm41.426 5.996 5.605 1.777c-.859 3.125-2.292 5.45-4.297 6.973-1.992 1.51-4.524 2.265-7.597 2.265-3.802 0-6.927-1.295-9.375-3.886-2.448-2.605-3.672-6.16-3.672-10.664 0-4.766 1.23-8.464 3.691-11.094 2.461-2.643 5.697-3.965 9.707-3.965 3.503 0 6.348 1.035 8.535 3.105 1.302 1.224 2.279 2.982 2.93 5.274l-5.723 1.367c-.338-1.484-1.048-2.656-2.129-3.516-1.067-.859-2.369-1.289-3.906-1.289-2.122 0-3.847.762-5.176 2.285-1.315 1.524-1.972 3.991-1.972 7.403 0 3.62.651 6.198 1.953 7.734 1.302 1.537 2.995 2.305 5.078 2.305 1.536 0 2.858-.488 3.965-1.465 1.107-.977 1.901-2.513 2.383-4.61ZM174.309 37V8.367h21.23v4.844H180.09v6.348h14.375v4.824H180.09v7.793h15.996V37h-21.777Zm26.836 0V8.602h5.781v23.574h14.375V37h-20.156Z" fill="#fff"/></svg>