<svg width="227" height="58" fill="none" xmlns="http://www.w3.org/2000/svg"><path fill-rule="evenodd" clip-rule="evenodd" d="M23.5 8C10.521 8 0 18.521 0 31.5c0 8.4 4.408 15.772 11.038 19.927A23.495 23.495 0 0 1 10 44.5C10 31.521 20.521 21 33.5 21H47V8H23.5Z" fill="#00B754"/><path fill-rule="evenodd" clip-rule="evenodd" d="M47 21v10.5C47 44.479 36.479 55 23.5 55a23.39 23.39 0 0 1-12.462-3.573A23.495 23.495 0 0 1 10 44.5C10 31.521 20.521 21 33.5 21H47Z" fill="#ECECEC"/><path d="M67.748 48.058V55h-1.612v-5.564h-3.419V55h-1.625v-6.942h6.656Zm6.3-.078c.677 0 1.279.147 1.808.442.537.295.957.71 1.26 1.248.304.537.456 1.157.456 1.859s-.152 1.326-.455 1.872a3.176 3.176 0 0 1-1.261 1.248c-.529.295-1.131.442-1.807.442-.936 0-1.677-.312-2.223-.936v3.367H70.2v-9.464h1.547v.91c.268-.33.598-.576.988-.741a3.406 3.406 0 0 1 1.313-.247Zm-.181 5.72c.598 0 1.087-.2 1.469-.598.39-.399.585-.923.585-1.573 0-.65-.195-1.174-.585-1.573-.382-.399-.871-.598-1.47-.598-.39 0-.74.091-1.052.273a1.881 1.881 0 0 0-.741.754c-.182.33-.273.71-.273 1.144 0 .433.09.815.273 1.144.182.33.429.585.74.767.313.173.664.26 1.054.26Zm8.676 1.391c-.702 0-1.335-.152-1.898-.455a3.377 3.377 0 0 1-1.326-1.261c-.312-.546-.468-1.161-.468-1.846s.156-1.296.468-1.833c.32-.537.763-.958 1.326-1.261.563-.303 1.196-.455 1.898-.455.71 0 1.348.152 1.91.455a3.286 3.286 0 0 1 1.314 1.261c.32.537.48 1.148.48 1.833s-.16 1.3-.48 1.846c-.312.537-.75.958-1.313 1.261-.563.303-1.2.455-1.911.455Zm0-1.391c.598 0 1.092-.2 1.482-.598.39-.399.585-.923.585-1.573 0-.65-.195-1.174-.585-1.573-.39-.399-.884-.598-1.482-.598s-1.092.2-1.482.598c-.381.399-.572.923-.572 1.573 0 .65.19 1.174.572 1.573.39.399.884.598 1.482.598ZM94.938 55v-4.602l-2.34 3.874h-.702l-2.3-3.887V55h-1.483v-6.942h1.703l2.47 4.342 2.587-4.342h1.521L96.407 55h-1.469Zm7.289-4.654c.884 0 1.56.2 2.028.598.468.399.702.962.702 1.69 0 .763-.26 1.352-.78 1.768-.511.416-1.239.62-2.184.611L98.847 55v-6.942h1.625v2.275l1.755.013Zm3.627-2.288h1.625V55h-1.625v-6.942Zm-4.004 5.759c.477.009.841-.091 1.092-.299.251-.208.377-.511.377-.91 0-.39-.121-.676-.364-.858-.243-.182-.611-.277-1.105-.286l-1.378-.013v2.353l1.378.013Zm18.304-5.759V55h-10.231v-6.942h1.625v5.564h2.691v-5.564h1.625v5.564h2.665v-5.564h1.625Zm8.737 0V55h-1.625v-5.564h-2.6l-.065 1.378c-.043.919-.13 1.69-.26 2.314-.121.615-.333 1.105-.637 1.469-.294.355-.702.533-1.222.533a3.6 3.6 0 0 1-.897-.143l.078-1.365c.122.026.226.039.312.039.33 0 .577-.13.741-.39a2.31 2.31 0 0 0 .312-.949c.052-.373.096-.901.13-1.586l.117-2.678h5.616Zm8.949 3.51c0 .113-.009.273-.026.481h-5.447c.095.511.342.919.741 1.222.407.295.91.442 1.508.442.762 0 1.391-.251 1.885-.754l.871 1.001a2.94 2.94 0 0 1-1.183.845 4.31 4.31 0 0 1-1.612.286c-.763 0-1.435-.152-2.015-.455a3.328 3.328 0 0 1-1.352-1.261c-.312-.546-.468-1.161-.468-1.846 0-.676.151-1.283.455-1.82a3.31 3.31 0 0 1 1.287-1.274c.546-.303 1.161-.455 1.846-.455.676 0 1.278.152 1.807.455.537.295.953.715 1.248 1.261.303.537.455 1.161.455 1.872Zm-3.51-2.288c-.52 0-.962.156-1.326.468-.356.303-.572.71-.65 1.222h3.939c-.07-.503-.282-.91-.637-1.222-.356-.312-.798-.468-1.326-.468Zm5.547-1.222h1.625v2.821h3.497v-2.821h1.625V55h-1.625v-2.743h-3.497V55h-1.625v-6.942Zm9.185 0h1.625v2.821h3.497v-2.821h1.625V55h-1.625v-2.743h-3.497V55h-1.625v-6.942Zm11.772-.078c1.022 0 1.802.247 2.34.741.546.485.819 1.222.819 2.21V55h-1.534v-.845c-.2.303-.486.537-.858.702-.364.156-.806.234-1.326.234s-.975-.087-1.365-.26a2.216 2.216 0 0 1-.91-.741 1.94 1.94 0 0 1-.312-1.079c0-.624.229-1.122.689-1.495.468-.381 1.2-.572 2.197-.572h1.794v-.104c0-.485-.148-.858-.442-1.118-.286-.26-.715-.39-1.287-.39-.39 0-.776.06-1.157.182a2.83 2.83 0 0 0-.949.507l-.637-1.183c.364-.277.801-.49 1.313-.637a5.842 5.842 0 0 1 1.625-.221Zm-.221 5.928c.407 0 .767-.091 1.079-.273.32-.19.546-.46.676-.806v-.806h-1.677c-.936 0-1.404.308-1.404.923 0 .295.117.529.351.702.234.173.559.26.975.26Zm11.514-5.85V55h-1.456v-2.093h-1.833L167.421 55h-1.742l1.638-2.314c-.503-.173-.889-.438-1.157-.793-.26-.364-.39-.81-.39-1.339 0-.797.281-1.413.845-1.846.563-.433 1.339-.65 2.327-.65h3.185Zm-3.133 1.365c-1.049 0-1.573.394-1.573 1.183 0 .78.507 1.17 1.521 1.17h1.729v-2.353h-1.677ZM182.767 55l-1.781-2.405L179.192 55h-1.794l2.704-3.523-2.587-3.419h1.807l1.703 2.275 1.703-2.275h1.755l-2.6 3.393L184.6 55h-1.833Zm3.256-6.942h1.625v4.576l3.835-4.576h1.482V55h-1.625v-4.576L187.518 55h-1.495v-6.942ZM202.236 55v-4.602l-2.34 3.874h-.702l-2.301-3.887V55h-1.482v-6.942h1.703l2.47 4.342 2.587-4.342h1.521l.013 6.942h-1.469Zm3.909-6.942h1.625v4.576l3.835-4.576h1.482V55h-1.625v-4.576L207.64 55h-1.495v-6.942Zm15.251 0V55h-1.456v-2.093h-1.833L216.69 55h-1.742l1.638-2.314c-.503-.173-.889-.438-1.157-.793-.26-.364-.39-.81-.39-1.339 0-.797.281-1.413.845-1.846.563-.433 1.339-.65 2.327-.65h3.185Zm-3.133 1.365c-1.049 0-1.573.394-1.573 1.183 0 .78.507 1.17 1.521 1.17h1.729v-2.353h-1.677ZM60.95 37V8.367h19.628v4.844H66.731v6.777h11.953v4.844H66.73V37h-5.782Zm23.24-14.14c0-2.917.437-5.365 1.309-7.344a13.574 13.574 0 0 1 2.656-3.926c1.133-1.159 2.37-2.018 3.711-2.578 1.784-.755 3.841-1.133 6.172-1.133 4.219 0 7.591 1.309 10.117 3.926 2.539 2.617 3.809 6.256 3.809 10.918 0 4.622-1.257 8.242-3.77 10.859-2.513 2.604-5.872 3.906-10.078 3.906-4.258 0-7.643-1.295-10.156-3.886-2.513-2.605-3.77-6.185-3.77-10.743Zm5.957-.196c0 3.242.75 5.703 2.246 7.383 1.498 1.666 3.399 2.5 5.704 2.5 2.304 0 4.192-.827 5.664-2.48 1.484-1.667 2.226-4.16 2.226-7.481 0-3.281-.722-5.73-2.168-7.344-1.432-1.614-3.34-2.422-5.722-2.422-2.383 0-4.304.82-5.762 2.461-1.458 1.628-2.188 4.089-2.188 7.383ZM116.516 37V8.367h12.168c3.059 0 5.28.26 6.66.781 1.393.508 2.506 1.42 3.34 2.735.833 1.315 1.25 2.819 1.25 4.512 0 2.148-.632 3.925-1.895 5.332-1.263 1.393-3.151 2.272-5.664 2.636 1.25.73 2.279 1.53 3.086 2.403.82.872 1.921 2.422 3.301 4.648L142.258 37h-6.914l-4.18-6.23c-1.484-2.227-2.5-3.627-3.047-4.2-.547-.586-1.126-.983-1.738-1.191-.612-.221-1.582-.332-2.91-.332h-1.172V37h-5.781Zm5.781-16.523h4.277c2.774 0 4.505-.118 5.196-.352a3.117 3.117 0 0 0 1.621-1.21c.39-.574.586-1.29.586-2.15 0-.963-.261-1.738-.782-2.324-.507-.599-1.23-.976-2.168-1.132-.468-.066-1.875-.098-4.218-.098h-4.512v7.266Zm41.426 5.996 5.605 1.777c-.859 3.125-2.292 5.45-4.297 6.973-1.992 1.51-4.524 2.265-7.597 2.265-3.802 0-6.927-1.295-9.375-3.886-2.448-2.605-3.672-6.16-3.672-10.664 0-4.766 1.23-8.464 3.691-11.094 2.461-2.643 5.697-3.965 9.707-3.965 3.503 0 6.348 1.035 8.535 3.105 1.302 1.224 2.279 2.982 2.93 5.274l-5.723 1.367c-.338-1.484-1.048-2.656-2.129-3.516-1.067-.859-2.369-1.289-3.906-1.289-2.122 0-3.847.762-5.176 2.285-1.315 1.524-1.972 3.991-1.972 7.403 0 3.62.651 6.198 1.953 7.734 1.302 1.537 2.995 2.305 5.078 2.305 1.536 0 2.858-.488 3.965-1.465 1.107-.977 1.901-2.513 2.383-4.61ZM174.309 37V8.367h21.23v4.844H180.09v6.348h14.375v4.824H180.09v7.793h15.996V37h-21.777Zm26.836 0V8.602h5.781v23.574h14.375V37h-20.156Z" fill="#ECECEC"/></svg>