<svg width="120" height="27" fill="none" xmlns="http://www.w3.org/2000/svg"><path fill-rule="evenodd" clip-rule="evenodd" d="M12.737.066C5.703.066 0 5.768 0 12.803c0 4.553 2.39 8.549 5.983 10.8a12.735 12.735 0 0 1-.563-3.754c0-7.034 5.703-12.737 12.738-12.737h7.317V.066H12.737Z" fill="#00B754"/><path fill-rule="evenodd" clip-rule="evenodd" d="M25.475 7.112v5.691c0 7.035-5.703 12.737-12.738 12.737a12.68 12.68 0 0 1-6.755-1.936 12.735 12.735 0 0 1-.562-3.755c0-7.034 5.703-12.737 12.737-12.737h7.318Z" fill="#101828"/><path d="M120.001 21.778v3.763h-.789v-1.135h-.994l-.768 1.135h-.944l.888-1.255a1.28 1.28 0 0 1-.627-.43 1.216 1.216 0 0 1-.212-.725c0-.433.153-.766.458-1 .306-.236.726-.353 1.261-.353h1.727Zm-1.698.74c-.569 0-.853.213-.853.64 0 .424.275.635.824.635h.938v-1.275h-.909Zm-6.568-.74h.881v2.48l2.079-2.48h.803v3.763h-.881v-2.48l-2.071 2.48h-.811v-3.763Zm-2.119 3.762v-2.494l-1.268 2.1h-.381l-1.247-2.107v2.502h-.803v-3.763h.923l1.339 2.353 1.402-2.353h.824l.007 3.763h-.796Zm-8.788-3.762h.881v2.48l2.079-2.48h.803v3.763h-.881v-2.48l-2.072 2.48h-.81v-3.763Zm-1.765 3.762-.965-1.303-.972 1.304h-.973l1.466-1.91-1.402-1.853h.98l.922 1.233.923-1.233h.951l-1.409 1.839 1.473 1.924h-.994Zm-5.766-3.762v3.763h-.79v-1.135h-.993l-.768 1.135h-.944l.888-1.255a1.285 1.285 0 0 1-.627-.43 1.216 1.216 0 0 1-.212-.725c0-.433.153-.766.458-1 .305-.236.726-.353 1.261-.353h1.727Zm-1.698.74c-.569 0-.853.213-.853.64 0 .424.275.635.824.635h.938v-1.275h-.91Zm-4.424-.782c.554 0 .977.133 1.268.401.296.263.444.663.444 1.198v2.206h-.831v-.458a1.044 1.044 0 0 1-.465.38 1.823 1.823 0 0 1-.72.127c-.28 0-.527-.047-.739-.141a1.205 1.205 0 0 1-.493-.402 1.052 1.052 0 0 1-.17-.585.99.99 0 0 1 .374-.81c.254-.207.65-.31 1.191-.31h.972v-.056c0-.263-.08-.465-.24-.606-.154-.141-.387-.212-.697-.212-.211 0-.42.033-.627.1a1.535 1.535 0 0 0-.514.274l-.346-.641c.198-.15.435-.266.712-.346.277-.08.57-.12.88-.12Zm-.12 3.213c.22 0 .416-.05.585-.148a.837.837 0 0 0 .366-.437v-.437h-.909c-.507 0-.76.167-.76.5 0 .16.063.287.19.38.126.095.303.142.528.142Zm-6.26-3.171h.88v1.529h1.896v-1.53h.88v3.764h-.88v-1.487h-1.895v1.487h-.881v-3.763Zm-4.979 0h.881v1.529h1.896v-1.53h.88v3.764h-.88v-1.487h-1.896v1.487h-.88v-3.763Zm-1.103 1.902c0 .061-.005.148-.015.261h-2.952c.052.277.186.498.402.662.22.16.493.24.817.24.413 0 .754-.136 1.022-.409l.472.543a1.59 1.59 0 0 1-.641.458c-.259.103-.55.155-.874.155-.413 0-.778-.082-1.092-.247a1.808 1.808 0 0 1-.733-.683 1.98 1.98 0 0 1-.254-1c0-.367.082-.696.247-.987.169-.296.401-.526.697-.69.296-.165.63-.247 1.001-.247.366 0 .693.082.98.246.29.16.516.388.676.684.164.29.247.63.247 1.014Zm-1.903-1.24a1.07 1.07 0 0 0-.719.254c-.192.164-.31.385-.352.662h2.135a1.038 1.038 0 0 0-.345-.662 1.05 1.05 0 0 0-.719-.254Zm-2.949-.662v3.763h-.88v-3.016h-1.41l-.035.747c-.023.498-.07.916-.14 1.254-.067.333-.182.599-.346.796-.16.193-.38.289-.662.289a1.94 1.94 0 0 1-.487-.078l.043-.74a.827.827 0 0 0 .169.022c.178 0 .312-.07.401-.212a1.25 1.25 0 0 0 .17-.514c.028-.202.051-.488.07-.86l.063-1.451h3.044Zm-4.735 0v3.763H59.58v-3.763h.88v3.016h1.46v-3.016h.88v3.016h1.445v-3.016h.88Zm-9.716 1.24c.48 0 .846.108 1.1.324.253.216.38.521.38.916 0 .414-.141.733-.423.958-.277.226-.672.336-1.184.332l-1.705-.007v-3.763h.88v1.233l.952.007Zm1.966-1.24h.88v3.763h-.88v-3.763Zm-2.17 3.121c.258.005.455-.049.592-.162.136-.112.204-.277.204-.493 0-.211-.066-.366-.197-.465-.132-.099-.331-.15-.6-.155l-.746-.007v1.275l.747.007Zm-3.747.641v-2.494l-1.268 2.1h-.38l-1.248-2.107v2.502h-.803v-3.763h.923l1.339 2.353 1.402-2.353h.824l.007 3.763h-.796Zm-6.719.05c-.38 0-.723-.082-1.028-.247a1.83 1.83 0 0 1-.72-.683 1.98 1.98 0 0 1-.253-1c0-.372.085-.703.254-.994a1.83 1.83 0 0 1 .719-.684 2.135 2.135 0 0 1 1.028-.246c.386 0 .73.082 1.036.246.305.165.543.393.712.684.174.29.26.622.26.993s-.086.705-.26 1c-.17.292-.407.52-.712.684a2.15 2.15 0 0 1-1.036.247Zm0-.754c.325 0 .592-.108.804-.324.211-.216.317-.5.317-.853 0-.352-.106-.636-.317-.852a1.076 1.076 0 0 0-.804-.324c-.324 0-.592.107-.803.324-.207.216-.31.5-.31.852 0 .353.103.637.31.853.212.216.48.324.803.324Zm-4.604-3.1c.367 0 .693.08.98.24.291.159.519.384.683.676.165.29.247.627.247 1.007 0 .38-.082.719-.247 1.015a1.722 1.722 0 0 1-.683.676c-.287.16-.613.24-.98.24-.507 0-.909-.17-1.204-.507v1.825h-.881v-5.13h.838v.493a1.38 1.38 0 0 1 .536-.402 1.85 1.85 0 0 1 .712-.133Zm-.098 3.1c.324 0 .59-.108.796-.324.211-.216.317-.5.317-.853 0-.352-.106-.636-.317-.852a1.053 1.053 0 0 0-.796-.324c-.212 0-.402.049-.57.148a1.02 1.02 0 0 0-.403.408 1.262 1.262 0 0 0-.148.62c0 .235.05.442.148.62.1.179.233.317.402.416.17.094.36.14.57.14Zm-3.317-3.058v3.763h-.874v-3.016h-1.853v3.016h-.88v-3.763h3.607Zm72.301-5.994V.392h3.134v12.777h7.792v2.615h-10.926Zm-14.545 0V.264h11.507V2.89H97.61v3.44h7.792v2.615H97.61v4.224h8.67v2.615H94.477Zm-5.737-5.706 3.038.963c-.466 1.694-1.243 2.954-2.33 3.78-1.08.819-2.452 1.228-4.118 1.228-2.06 0-3.754-.702-5.081-2.107-1.327-1.411-1.99-3.338-1.99-5.78 0-2.583.667-4.587 2-6.013C81.595.716 83.348 0 85.522 0c1.898 0 3.44.561 4.626 1.683.706.664 1.235 1.616 1.588 2.859l-3.102.74c-.183-.804-.568-1.44-1.154-1.905-.578-.466-1.284-.699-2.117-.699-1.15 0-2.085.413-2.805 1.239-.713.826-1.07 2.163-1.07 4.012 0 1.962.354 3.36 1.06 4.192.705.833 1.623 1.25 2.752 1.25.832 0 1.549-.265 2.149-.795.6-.529 1.03-1.362 1.291-2.498Zm-25.588 5.706V.264h6.596c1.658 0 2.861.142 3.61.424.755.275 1.358.77 1.81 1.482.451.713.677 1.528.677 2.446 0 1.164-.342 2.127-1.027 2.89-.684.755-1.707 1.231-3.07 1.429.678.395 1.236.83 1.673 1.302.445.473 1.041 1.313 1.79 2.52l1.894 3.027h-3.748l-2.265-3.377c-.805-1.207-1.355-1.965-1.651-2.276-.297-.318-.61-.533-.943-.646-.331-.12-.857-.18-1.577-.18h-.635v6.48h-3.134Zm3.134-8.956h2.318c1.504 0 2.442-.063 2.816-.19.374-.127.667-.346.879-.657.212-.31.317-.698.317-1.164 0-.522-.14-.942-.423-1.26-.275-.325-.667-.53-1.175-.614-.254-.035-1.016-.053-2.287-.053h-2.445v3.938ZM45.632 8.12c0-1.581.236-2.908.71-3.98.352-.791.832-1.5 1.439-2.129.614-.628 1.284-1.094 2.011-1.397C50.76.204 51.874 0 53.138 0c2.286 0 4.114.71 5.483 2.128 1.376 1.418 2.064 3.391 2.064 5.918 0 2.505-.68 4.467-2.043 5.886-1.362 1.411-3.183 2.117-5.462 2.117-2.308 0-4.143-.702-5.505-2.107-1.362-1.411-2.043-3.352-2.043-5.822Zm3.229-.106c0 1.757.406 3.091 1.217 4.001.812.904 1.842 1.355 3.091 1.355 1.25 0 2.273-.448 3.07-1.344.805-.903 1.207-2.255 1.207-4.055 0-1.778-.392-3.105-1.175-3.98-.776-.875-1.81-1.313-3.102-1.313-1.291 0-2.332.445-3.123 1.334-.79.882-1.185 2.216-1.185 4.002Zm-15.827 7.77V.264h10.64V2.89h-7.506v3.673h6.479V9.19h-6.48v6.595h-3.133Z" fill="#101828"/></svg>