<svg width="74" height="74" fill="none" xmlns="http://www.w3.org/2000/svg"><rect width="74" height="74" rx="14" fill="#00B754"/><path fill-rule="evenodd" clip-rule="evenodd" d="M46.287 44.904c5.023-5.023 5.023-13.168 0-18.191a12.854 12.854 0 0 0-11.985-3.441 12.86 12.86 0 0 1 3.083 2.28c5.023 5.023 5.023 13.167 0 18.19l-5.226 5.226L37.191 54l9.096-9.096Z" fill="#333"/><path fill-rule="evenodd" clip-rule="evenodd" d="m32.16 48.968-4.065-4.064c-5.023-5.023-5.023-13.168 0-18.191a12.802 12.802 0 0 1 6.207-3.441 12.862 12.862 0 0 1 3.083 2.28c5.023 5.023 5.023 13.167 0 18.19l-5.226 5.226Z" fill="#101828"/></svg>